<mxfile host="Electron" modified="2023-08-21T10:54:17.128Z" agent="5.0 (Windows NT 10.0; Win64; x64) AppleWebKit/537.36 (KHTML, like Gecko) draw.io/20.3.0 Chrome/104.0.5112.114 Electron/20.1.3 Safari/537.36" etag="s7FcW_aR91d0VCTSbUIM" compressed="false" version="20.3.0" type="device">
  <diagram name="PA003A" id="6dZpL4T03MY3bTsIDm-O">
    <mxGraphModel dx="1422" dy="977" grid="1" gridSize="2" guides="1" tooltips="1" connect="1" arrows="1" fold="1" page="1" pageScale="1" pageWidth="1169" pageHeight="827" math="0" shadow="0">
      <root>
        <mxCell id="Hf3I3iQ9lCB9FICaW0wq-0" />
        <mxCell id="Hf3I3iQ9lCB9FICaW0wq-124" value="Connection" style="" parent="Hf3I3iQ9lCB9FICaW0wq-0" />
        <object label="Connection" PipingConnector="N" LabelConnector="N" SignalConnector="N" Direction="270" AuxiliaryConnector="Y" id="Hf3I3iQ9lCB9FICaW0wq-125">
          <mxCell style="vsdxID=1407;fillColor=none;gradientColor=none;shape=stencil(rVFbDsIgEDwNnyQU4glqvcfGblsilmZBS28vZGMsxg9j/JvZmX1kR5g2TLCg0CpE8hdcbR8nYY5CaztPSDZmJEwnTDt4wpH8be6ZL1CcBV39vUxI3KdKh1YbswPTEzuBzlmiVGmKau9zUKM+jlJJQrJBko8QrZ+rrQ5oRJnXyMHBWElhRVx25ebnw/5zVvPFWRm83jxY5zilvf4eSy5xpKZ7AA==);strokeColor=#00FF00;strokeWidth=1;points=[[0.5,0.5,0,0,0]];labelBackgroundColor=none;rounded=0;html=1;whiteSpace=wrap;aspect=fixed;noLabel=1;snapToPoint=1;container=0;fontSize=16;" parent="Hf3I3iQ9lCB9FICaW0wq-124" vertex="1">
            <mxGeometry x="378" y="378" width="12" height="12" as="geometry" />
          </mxCell>
        </object>
        <object label="Connection" PipingConnector="N" LabelConnector="N" SignalConnector="Y" Direction="90" id="Hf3I3iQ9lCB9FICaW0wq-126">
          <mxCell style="vsdxID=1407;fillColor=none;gradientColor=none;shape=stencil(rVFbDsIgEDwNnyQU4glqvcfGblsilmZBS28vZGMsxg9j/JvZmX1kR5g2TLCg0CpE8hdcbR8nYY5CaztPSDZmJEwnTDt4wpH8be6ZL1CcBV39vUxI3KdKh1YbswPTEzuBzlmiVGmKau9zUKM+jlJJQrJBko8QrZ+rrQ5oRJnXyMHBWElhRVx25ebnw/5zVvPFWRm83jxY5zilvf4eSy5xpKZ7AA==);strokeColor=#00FF00;strokeWidth=1;points=[[0.5,0.5,0,0,0]];labelBackgroundColor=none;rounded=0;html=1;whiteSpace=wrap;aspect=fixed;noLabel=1;snapToPoint=1;container=0;fontSize=16;" parent="Hf3I3iQ9lCB9FICaW0wq-124" vertex="1">
            <mxGeometry x="378" y="266" width="12" height="12" as="geometry" />
          </mxCell>
        </object>
        <mxCell id="Hf3I3iQ9lCB9FICaW0wq-131" value="Label" style="locked=1;" parent="Hf3I3iQ9lCB9FICaW0wq-0" />
        <mxCell id="Hf3I3iQ9lCB9FICaW0wq-134" value="Origo" style="locked=1;" parent="Hf3I3iQ9lCB9FICaW0wq-0" visible="0" />
        <object label="origo" id="Hf3I3iQ9lCB9FICaW0wq-135">
          <mxCell style="vsdxID=1407;fillColor=none;gradientColor=none;shape=stencil(rVFbDsIgEDwNnyQU4glqvcfGblsilmZBS28vZGMsxg9j/JvZmX1kR5g2TLCg0CpE8hdcbR8nYY5CaztPSDZmJEwnTDt4wpH8be6ZL1CcBV39vUxI3KdKh1YbswPTEzuBzlmiVGmKau9zUKM+jlJJQrJBko8QrZ+rrQ5oRJnXyMHBWElhRVx25ebnw/5zVvPFWRm83jxY5zilvf4eSy5xpKZ7AA==);strokeColor=#ff0000;strokeWidth=1;points=[[0.5,0.5,0,0,0]];labelBackgroundColor=none;rounded=0;html=1;whiteSpace=wrap;aspect=fixed;noLabel=1;snapToPoint=1;" parent="Hf3I3iQ9lCB9FICaW0wq-134" vertex="1">
            <mxGeometry x="380.06" y="380.06" width="7.874" height="7.87" as="geometry" />
          </mxCell>
        </object>
        <object label="Symbol" Width="6" Height="7" UoM="mm" id="Hf3I3iQ9lCB9FICaW0wq-136">
          <mxCell style="locked=1;" parent="Hf3I3iQ9lCB9FICaW0wq-0" />
        </object>
        <mxCell id="Hf3I3iQ9lCB9FICaW0wq-138" value="" style="endArrow=none;html=1;rounded=0;entryX=0.5;entryY=1;entryDx=0;entryDy=0;" parent="Hf3I3iQ9lCB9FICaW0wq-136" edge="1">
          <mxGeometry width="50" height="50" relative="1" as="geometry">
            <mxPoint x="384" y="384" as="sourcePoint" />
            <mxPoint x="384" y="272" as="targetPoint" />
          </mxGeometry>
        </mxCell>
        <mxCell id="VUdvBrx1IErmhYjB91Kk-1" value="" style="endArrow=none;html=1;rounded=0;strokeColor=#000000;" parent="Hf3I3iQ9lCB9FICaW0wq-136" edge="1">
          <mxGeometry width="50" height="50" relative="1" as="geometry">
            <mxPoint x="336" y="272" as="sourcePoint" />
            <mxPoint x="432" y="272" as="targetPoint" />
          </mxGeometry>
        </mxCell>
      </root>
    </mxGraphModel>
  </diagram>
</mxfile>
